<svg xmlns="http://www.w3.org/2000/svg" xmlns:xlink="http://www.w3.org/1999/xlink" width="1024" height="1024" viewBox="0 0 1024 1024"><metadata><rdf:RDF xmlns:rdf="http://www.w3.org/1999/02/22-rdf-syntax-ns#" xmlns:dc="http://purl.org/dc/elements/1.1/"><rdf:Description><dc:creator>RealFaviconGenerator</dc:creator><dc:source>https://realfavicongenerator.net</dc:source></rdf:Description></rdf:RDF></metadata><path fill="#0D0E1A" d="M0 0L1024 0L1024 1024L0 1024L0 0Z"></path><path fill="white" d="M485.871 527.799C487.085 528.689 495.187 537.549 496.752 539.177C507.625 550.487 518.029 562.314 529.169 573.38C524.456 579.888 517.867 586.668 512.488 592.803C503.647 602.948 494.884 613.16 486.199 623.438L642.843 623.362C650.091 633.937 659.196 644.856 667.215 655.06C679.228 670.642 691.417 686.088 703.779 701.395L594.25 701.454L333.984 701.489C339.567 694.157 347.599 685.274 353.817 678.251L382.844 645.498L434.931 585.981C451.7 566.973 469.609 547.164 485.871 527.799Z"></path><path fill="white" d="M320.237 322.249L690.431 322.398C684.061 330.11 666.364 351.856 659.911 357.022C653.874 361.854 618.003 376.439 609.904 379.953C613.325 383.787 621.537 391.01 625.591 394.797L595.352 431.03C577.599 451.842 559.318 476.27 541.319 496.093C534.859 490.146 528.198 482.377 522.13 475.877C514.036 467.208 505.622 458.453 497.755 449.608C500.277 445.933 506.126 439.664 509.169 435.924C518.868 424.003 529.714 412.233 538.919 399.984C486.695 400.514 434.557 399.584 382.189 400.465C369.786 387.274 354.646 367.418 342.82 353.2L325.979 333.042C324.058 330.739 319.363 325.448 317.919 323.173L318.206 322.481L320.237 322.249Z"></path><path fill="#8B5CF6" d="M707.385 355.481L708.081 356.062C707.908 359.824 703.057 377.337 701.849 382.495C697.708 400.641 693.737 418.826 689.936 437.046C683.243 430.663 677.055 423.928 670.12 417.652C653.208 435.646 632.807 460.248 616.45 479.252L544.939 561.752C525.423 541.034 503.411 518.916 484.924 497.604C473.534 509.867 460.992 525.311 449.722 538.221L334.144 671.945L328.175 665.978C323.868 661.702 319.684 657.574 315.744 652.95C370.355 588.137 428.544 525.499 483.417 460.755C491.365 467.941 501.806 479.948 509.199 488.027C520.559 500.469 532.227 512.626 544.191 524.489C550.251 518.423 555.957 511.062 561.634 504.559C568.063 497.193 574.569 489.912 580.982 482.534L651.902 400.611C646.841 395.399 641.48 390.565 636.409 385.233C659.441 376.724 684.532 364.998 707.385 355.481Z"></path></svg>